<svg xmlns="http://www.w3.org/2000/svg" width="221.731" height="175.518" viewBox="0 0 221.731 175.518"><defs><style>.a{fill:#26b864;}.b,.c,.d{fill:#f6b419;}.b{opacity:0.75;}.c{opacity:0.5;}.d{opacity:0.25;}</style></defs><g transform="translate(-7.456 -0.006)"><g transform="translate(0 0.006)"><path class="a" d="M53.874,189.257h30.2v-5.289c-10.748-11.8-16.493-29.107-16.493-51.136a95.788,95.788,0,0,1,2.267-21.057H66.982l-10.61,28.76H40.4L68.27,81.757,44.367,69.89,9.67,144.5v19.407h44.2Z" transform="translate(-2.214 -16.005)"/><path class="a" d="M96.08,129.178c0,41.521,21.589,61.684,55.192,61.684,18.158,0,34.512-5.035,44.59-12.221V127.019h-31.1v36.856c-2.691,1.257-8.628,2.159-12.576,2.159-17.264,0-24.273-15.1-24.273-38.653,0-22.839,8.805-34.512,22.831-34.512,8.088,0,15.1,3.778,23.193,14.388l22.476-16.539C182.739,71.11,166.554,67,151.1,67,125.2,67,96.08,82.614,96.08,129.178Z" transform="translate(-21.997 -15.344)"/><path class="b" d="M221.276,94.286a6.091,6.091,0,0,0,.316,7.194,6.315,6.315,0,0,0,1.411,1.3,6.168,6.168,0,0,0,8.482-1.735,36.329,36.329,0,0,0,2.09-3.585,36.9,36.9,0,0,0-45.253-51.506,6.114,6.114,0,0,0-3.716,7.811,6.222,6.222,0,0,0,7.811,3.709,24.674,24.674,0,0,1,30.256,34.435A27.435,27.435,0,0,1,221.276,94.286Z" transform="translate(-42.183 -10.037)"/><path class="c" d="M242.236,41.932a54.035,54.035,0,0,0-56.927-18.42,6.168,6.168,0,0,0-4.225,7.564,6.361,6.361,0,0,0,7.549,4.241A41.884,41.884,0,0,1,238.8,91.125a42.456,42.456,0,0,1-2.151,4.58,6.114,6.114,0,0,0,.578,6.747,6.261,6.261,0,0,0,1.874,1.542,6.03,6.03,0,0,0,4.626.5,6.1,6.1,0,0,0,3.709-2.953,54.267,54.267,0,0,0-5.2-59.61Z" transform="translate(-41.407 -4.926)"/><path class="d" d="M184.188,14.428a58.438,58.438,0,0,1,68,82.395c-.316.625-.625,1.241-.995,1.9a6.114,6.114,0,0,0,7.1,8.782,5.991,5.991,0,0,0,3.639-2.922c.424-.771.833-1.542,1.257-2.375a70.7,70.7,0,0,0-82.31-99.6" transform="translate(-41.412 -0.006)"/></g></g></svg>