<svg xmlns="http://www.w3.org/2000/svg" width="266.14" height="330" viewBox="0 0 266.14 330"><defs><style>.a{fill:#161616;}.b{fill:#fffffa;}.c{fill:#fcb216;}.d{fill:#f6b419;}.e{fill:#2c276c;}.f{fill:#fff;}.g{fill:#f2f0f6;}.h{fill:#30296b;}</style></defs><g transform="translate(0)"><rect class="a" width="184.939" height="330" rx="13.81" transform="translate(81.2)"/><rect class="b" width="148.722" height="259.942" rx="0.24" transform="translate(99.301 25.63)"/><circle class="b" cx="15.501" cy="15.501" r="15.501" transform="translate(158.169 293.085)"/><rect class="b" width="48.438" height="5.04" rx="1.45" transform="translate(149.451 10.635)"/><path class="c" d="M86.71,115.12l19.369,37.438L66.2,127.261Z" transform="translate(38.728 67.347)"/><circle class="c" cx="81.2" cy="81.2" r="81.2" transform="translate(0 38.785)"/><path class="d" d="M133.659,61.581c-1.347,22-6.023,43.1-17.1,62.386a93.611,93.611,0,0,1-39.942,38.04,5.9,5.9,0,0,1-5.912-.079c-21.271-10.937-36.075-27.722-45.49-49.627a143.825,143.825,0,0,1-11.19-51.2c-.19-4.486-.174-4.454,4.105-5.389q26.6-5.849,53.193-11.729a9.684,9.684,0,0,1,4.248,0q27.9,6.023,55.745,12.078c1.839.4,2.631,1.189,2.362,3.075A18.417,18.417,0,0,0,133.659,61.581ZM16.209,64.925a157.329,157.329,0,0,0,5.6,33.111A108.59,108.59,0,0,0,35.832,128.9a92.454,92.454,0,0,0,34.87,31,5.944,5.944,0,0,0,6.1,0,91.011,91.011,0,0,0,34.11-29.973c14.265-20.986,19.527-44.7,20.716-69.614.1-1.886-.792-2.425-2.409-2.774Q102.783,51.817,76.281,46a11.444,11.444,0,0,0-4.993,0Q46.562,51.5,21.836,56.937c-6.879,1.474-5.674.1-5.611,8.052Z" transform="translate(8.168 25.595)"/><path class="e" d="M15.423,64.289c0-7.925-1.252-6.594,5.627-8.131q24.726-5.5,49.452-10.937a11.444,11.444,0,0,1,4.993,0Q101.981,51.07,128.4,56.856c1.585.349,2.5.888,2.409,2.774-1.189,24.916-6.451,48.628-20.716,69.614a91.012,91.012,0,0,1-34.11,29.909,5.944,5.944,0,0,1-6.1,0,92.454,92.454,0,0,1-34.87-31A108.589,108.589,0,0,1,21,97.337a157.327,157.327,0,0,1-5.579-33.048Zm77.666,8.876h.6c.143.46.317.9.444,1.379,1.331,5.215,2.695,10.414,3.947,15.644.412,1.712.618,3.17,3.059,2.948,2.061-.19,3.709.143,4.248-2.79.951-5.278,2.5-10.445,3.8-15.676.143-.571.222-1.11,1.189-1.014,0,5.738.158,11.46,0,17.166-.111,2.726,1.474,2.171,3.012,2.251s2.805.111,2.742-2.267c-.174-6.72,0-13.457,0-20.177,0-6.118,0-5.991-6.182-6.166-2.346,0-3.17.761-3.677,2.932-1.22,5.183-2.758,10.287-4.169,15.422A108.907,108.907,0,0,1,98.272,70.8c-1.744-6.34-1.744-6.34-8.305-6.34-1.854,0-2.441.444-2.409,2.378.111,7.925.159,15.977,0,23.965,0,2.393,1.11,2.314,2.742,2.251s3.17.412,3-2.267c-.365-5.9-.222-11.761-.222-17.625ZM71.1,93.549a14.693,14.693,0,0,0,5.944-.967,8.226,8.226,0,0,0,5.5-7.719,7.735,7.735,0,0,0-5.1-7.925,46.279,46.279,0,0,0-5.294-1.585,42.4,42.4,0,0,1-5.04-1.585,2.156,2.156,0,0,1-.65-3.836A6.34,6.34,0,0,1,75.4,71.707c.269.507.3,1.236,1.062,1.236,1.728,0,3.978.507,4.961-.745s-.317-3.012-1.252-4.327a7.291,7.291,0,0,0-3.281-2.679,15.85,15.85,0,0,0-12.49,0,7.148,7.148,0,0,0-4.612,6.657,7.354,7.354,0,0,0,4.153,6.895A19.019,19.019,0,0,0,68.7,80.472a50.286,50.286,0,0,1,5.8,1.68,2.837,2.837,0,0,1,1.11,4.866c-2.425,2.647-8.892,2.124-10.065-1.2-1.078-3.059-2.964-2.425-5.024-2.267-1.585.111-1.918.745-1.458,2.3C60.517,91,64.289,93.549,71.1,93.549ZM32.89,78.6V88.936c0,4.2,0,4.121,4.137,4.105,1.585,0,2-.571,1.934-2.061-.1-2.346,0-4.755,0-7.053,0-1.3.333-1.775,1.7-1.744A43.555,43.555,0,0,0,48.09,81.9a8.4,8.4,0,0,0,7.354-8.781,7.925,7.925,0,0,0-7.354-8.385c-4.517-.586-9.05-.111-13.584-.3-1.379,0-1.68.586-1.664,1.823C32.921,70.392,32.89,74.5,32.89,78.6Zm67.775,39.911a21.873,21.873,0,0,0-1.585-9.605,8.1,8.1,0,0,0-7.925-5.04,7.814,7.814,0,0,0-7.925,5.088,27.135,27.135,0,0,0-.269,18.735,8.813,8.813,0,0,0,16.373,0,23.109,23.109,0,0,0,1.331-9.177Zm-36.836-5.167c0-2.092.079-4.2,0-6.34,0-.872.713-2.378-.761-2.5s-3.424-.9-4.676.808c-3.915,5.357-7.925,10.683-11.618,16.135-1.95,2.853-.46,5.437,2.869,5.452H54.4c3.82,0,3.8,0,3.931,3.8,0,.777-.317,1.585.967,1.95,3.36.761,4.5,0,4.5-3.455,0-1.363,0-2.6,1.9-2.314,2.314.333,1.7-1.395,1.807-2.631s0-2.6-1.9-2.3c-1.49.238-1.87-.491-1.807-1.87C63.94,117.942,63.829,115.612,63.829,113.346ZM74.385,127.31c-2.061-.412-3.17-.127-3.17,2.536.079,2.267.586,3.043,2.932,2.9,1.87-.111,3.17,0,2.964-2.6-.127-1.95-.048-3.582-2.726-2.837Z" transform="translate(8.97 26.294)"/><path class="f" d="M66.5,65.986c0,5.865-.158,11.729,0,17.578.1,2.679-1.427,2.2-3,2.267s-2.79.143-2.742-2.251c.174-7.925.127-15.977,0-23.965,0-1.934.555-2.393,2.409-2.378,6.562,0,6.562,0,8.305,6.34a108.9,108.9,0,0,0,3.931,12c1.411-5.135,2.932-10.239,4.169-15.422.523-2.171,1.331-3,3.677-2.932,6.182.174,6.182,0,6.182,6.166,0,6.736-.111,13.457,0,20.177,0,2.362-1.094,2.346-2.742,2.267s-3.17.476-3.012-2.251c.222-5.706,0-11.428,0-17.166-.967-.111-1.046.444-1.189,1.014-1.284,5.215-2.837,10.4-3.8,15.676-.539,2.932-2.187,2.6-4.248,2.79-2.441.222-2.647-1.252-3.059-2.948-1.268-5.231-2.615-10.429-3.947-15.644-.111-.46-.285-.919-.444-1.379Z" transform="translate(35.545 33.473)"/><path class="f" d="M55.033,86.578c-6.816,0-10.588-2.536-12.062-7.7-.444-1.585,0-2.187,1.458-2.3,2.076-.143,3.963-.792,5.024,2.267,1.157,3.329,7.64,3.852,10.065,1.2a2.837,2.837,0,0,0-1.11-4.866,50.29,50.29,0,0,0-5.785-1.68,19.02,19.02,0,0,1-4.755-1.728A7.354,7.354,0,0,1,43.7,64.8a7.148,7.148,0,0,1,4.612-6.657,15.85,15.85,0,0,1,12.49,0,7.291,7.291,0,0,1,3.281,2.679c.919,1.331,2.124,3.17,1.252,4.327s-3.17.713-4.961.745c-.761,0-.793-.713-1.062-1.236a6.34,6.34,0,0,0-8.939-1.775,2.156,2.156,0,0,0,.666,3.867,42.4,42.4,0,0,0,5.04,1.585c1.759.539,3.6.935,5.294,1.585a7.735,7.735,0,0,1,5.1,7.925,8.226,8.226,0,0,1-5.5,7.767,14.693,14.693,0,0,1-5.944.967Z" transform="translate(25.042 33.265)"/><path class="f" d="M26.445,71.413V59.066c0-1.236.285-1.87,1.664-1.823,4.517.174,9.066-.285,13.584.3a7.925,7.925,0,0,1,7.354,8.385,8.4,8.4,0,0,1-7.4,8.781,43.557,43.557,0,0,1-7.529.3c-1.363,0-1.744.444-1.7,1.744.1,2.346,0,4.755,0,7.053,0,1.474-.317,2.045-1.934,2.061-4.137,0-4.137.1-4.137-4.105Q26.429,76.58,26.445,71.413ZM32.484,65.9v2.774c0,.919.206,1.458,1.252,1.427a24.3,24.3,0,0,0,6.245-.412,3.487,3.487,0,0,0,2.79-3.693A3.439,3.439,0,0,0,40,62.553,24.838,24.838,0,0,0,33.72,62.2c-1.03,0-1.284.539-1.252,1.427S32.484,65.137,32.484,65.9Z" transform="translate(15.415 33.483)"/><path class="f" d="M76.289,96.786a23.078,23.078,0,0,1-1.363,9.146,8.813,8.813,0,0,1-16.373,0A27.135,27.135,0,0,1,58.79,87.2a7.814,7.814,0,0,1,7.925-5.088,8.1,8.1,0,0,1,7.925,5.04A21.857,21.857,0,0,1,76.289,96.786Zm-5.944-.079a25.646,25.646,0,0,0-.666-7.339c-.476-1.442-1.284-2.6-3.012-2.552a2.964,2.964,0,0,0-2.885,2.695,36.947,36.947,0,0,0,0,14.5,3,3,0,0,0,3.075,2.805c1.775,0,2.568-1.363,2.98-2.948A31.543,31.543,0,0,0,70.345,96.706Z" transform="translate(33.346 48.021)"/><path class="f" d="M52.524,91.446v6.8c0,1.379.317,2.108,1.807,1.87,1.918-.3,2.013.888,1.9,2.3s.507,2.964-1.807,2.631c-1.965-.285-1.9.951-1.9,2.314,0,3.408-1.141,4.216-4.5,3.455-1.284-.285-.951-1.189-.967-1.95-.127-3.8-.127-3.8-3.931-3.8H38.369c-3.329,0-4.755-2.6-2.869-5.452,3.756-5.468,7.719-10.778,11.618-16.135,1.252-1.712,3.17-.935,4.676-.808s.7,1.585.761,2.5C52.635,87.246,52.524,89.338,52.524,91.446Zm-12.141,8.686h5.468c.84,0,1.173-.4,1.157-1.236V91.747l-.491-.159Z" transform="translate(20.276 48.193)"/><path class="g" d="M53.756,96.978c2.663-.745,2.584.888,2.742,2.853.206,2.568-1.094,2.473-2.964,2.6-2.33.143-2.837-.634-2.932-2.9C50.522,96.851,51.7,96.566,53.756,96.978Z" transform="translate(29.6 56.626)"/><path class="h" d="M30.22,64.086V61.82c0-.682.222-1.474,1.252-1.427a24.837,24.837,0,0,1,6.261.349,3.439,3.439,0,0,1,2.774,3.439,3.487,3.487,0,0,1-2.79,3.693,24.3,24.3,0,0,1-6.245.412c-1.046,0-1.268-.539-1.252-1.426S30.22,65.005,30.22,64.086Z" transform="translate(17.679 35.294)"/><path class="h" d="M68.125,94.966a31.543,31.543,0,0,1-.555,7.148c-.412,1.585-1.2,2.885-2.98,2.948a3,3,0,0,1-3.075-2.805,36.947,36.947,0,0,1,0-14.5A2.964,2.964,0,0,1,64.4,85.06c1.728,0,2.52,1.094,3.012,2.552a25.646,25.646,0,0,1,.713,7.354Z" transform="translate(35.567 49.761)"/><path class="h" d="M38.28,96.723l6.134-8.543.491.159v7.148c0,.84-.333,1.236-1.157,1.236Z" transform="translate(22.394 51.587)"/></g></svg>