<svg xmlns="http://www.w3.org/2000/svg" xmlns:xlink="http://www.w3.org/1999/xlink" width="137.181" height="44.873" viewBox="0 0 137.181 44.873"><defs><style>.a{fill:none;}.b{fill:#231f20;}.c{clip-path:url(#a);}.d{fill:url(#b);}.e{fill:url(#c);}.f{fill:url(#d);}.g{fill:url(#e);}.h{fill:#f9f9f9;}.i{fill:#f9f9fa;}</style><clipPath id="a"><path class="a" d="M57.807,44.61l-6.185-3.572-11.93-6.89c-.662-.384-1.322-.15-1.322.649V62.864c0,.6.472.858,1.046.536l12.206-7.048,6.185-3.57,5.943-3.444c.7-.4.63-.955.043-1.274S57.807,44.61,57.807,44.61Z" transform="translate(-38.37 -33.967)"/></clipPath><linearGradient id="b" x1="0.5" x2="0.5" y2="1" gradientUnits="objectBoundingBox"><stop offset="0" stop-color="#257cb0"/><stop offset="0.21" stop-color="#3c8fb3"/><stop offset="0.74" stop-color="#73bdba"/><stop offset="1" stop-color="#89cfbd"/></linearGradient><linearGradient id="c" y1="0.5" x2="1" y2="0.5" gradientUnits="objectBoundingBox"><stop offset="0" stop-color="#52c1ad"/><stop offset="1" stop-color="#dee89a"/></linearGradient><linearGradient id="d" x1="0.5" x2="0.5" y2="1" gradientUnits="objectBoundingBox"><stop offset="0" stop-color="#ec413d"/><stop offset="0.19" stop-color="#d74352"/><stop offset="0.74" stop-color="#a04888"/><stop offset="1" stop-color="#8a4a9d"/></linearGradient><linearGradient id="e" x1="0.5" x2="0.5" y2="1" gradientUnits="objectBoundingBox"><stop offset="0" stop-color="#f58879"/><stop offset="0.62" stop-color="#fbb276"/><stop offset="1" stop-color="#fec874"/></linearGradient></defs><path class="b" d="M137.18,38.809a6.064,6.064,0,0,1-6.064,6.064H6.064A6.064,6.064,0,0,1,0,38.809V6.064A6.064,6.064,0,0,1,6.064,0H131.116a6.064,6.064,0,0,1,6.064,6.064Z"/><g transform="translate(10.291 9.11)"><g class="c"><path class="d" d="M38.37,32.21V62.6L53.692,47.4Z" transform="translate(-38.37 -32.681)"/><path class="e" d="M57.807,43.024l-6.185-3.572L38.37,31.8v.11L53.692,47.1Z" transform="translate(-38.37 -32.381)"/><path class="f" d="M38.37,104.054v.113l13.252-7.654,6.185-3.57L53.692,88.86Z" transform="translate(-38.37 -74.138)"/><path class="g" d="M99.614,73.65,95.5,77.729l4.114,4.082,7.07-4.082Z" transform="translate(-80.178 -63.007)"/></g></g><path class="h" d="M386.827,86.015a3.824,3.824,0,0,1-1.577-.319,2.97,2.97,0,0,1-1.2-.979h-.1a11.862,11.862,0,0,1,.1,1.467v3.64H382.71v-12.8H383.8l.185,1.21h.064a3.111,3.111,0,0,1,1.2-1.049,3.65,3.65,0,0,1,1.572-.322,3.266,3.266,0,0,1,2.714,1.2,6.4,6.4,0,0,1-.016,6.753,3.275,3.275,0,0,1-2.693,1.2Zm-.193-8.022a2.366,2.366,0,0,0-1.958.751,3.879,3.879,0,0,0-.622,2.387v.3a4.417,4.417,0,0,0,.622,2.666,2.368,2.368,0,0,0,1.99.8,2.073,2.073,0,0,0,1.794-.928,4.4,4.4,0,0,0,.649-2.556,4.309,4.309,0,0,0-.649-2.537A2.146,2.146,0,0,0,386.634,78Z" transform="translate(-280.066 -56.244)"/><path class="h" d="M419.631,76.177H418.29V63.63h1.341Z" transform="translate(-306.103 -46.564)"/><path class="h" d="M435.346,85.9l-.268-1.258h-.064a3.706,3.706,0,0,1-1.32,1.124,4.023,4.023,0,0,1-1.641.3,2.947,2.947,0,0,1-2.06-.679,2.47,2.47,0,0,1-.746-1.926q0-2.682,4.291-2.805l1.5-.048v-.536a2.241,2.241,0,0,0-.448-1.537,1.913,1.913,0,0,0-1.44-.518,5.828,5.828,0,0,0-2.5.679l-.4-1.016a6.292,6.292,0,0,1,1.432-.555,6.2,6.2,0,0,1,1.561-.2,3.36,3.36,0,0,1,2.341.7,2.932,2.932,0,0,1,.762,2.25V85.9Zm-3.023-.944a2.72,2.72,0,0,0,1.963-.684,2.537,2.537,0,0,0,.713-1.92v-.8l-1.341.056a4.8,4.8,0,0,0-2.3.5,1.5,1.5,0,0,0-.705,1.368,1.376,1.376,0,0,0,.44,1.1,1.821,1.821,0,0,0,1.226.384Z" transform="translate(-314.118 -56.29)"/><path class="h" d="M458.58,77.46h1.435l1.936,5.04a19.256,19.256,0,0,1,.791,2.492h.064q.1-.413.44-1.408t2.189-6.123h1.435l-3.8,10.068a5,5,0,0,1-1.32,2.116,2.805,2.805,0,0,1-1.851.625,5.4,5.4,0,0,1-1.21-.137V89.06a4.672,4.672,0,0,0,.992.1,2.046,2.046,0,0,0,1.969-1.548l.491-1.258Z" transform="translate(-335.588 -56.685)"/><path class="h" d="M286.8,78.72a3.013,3.013,0,0,1-.241,5.123,1.293,1.293,0,0,0-.518.907,1.014,1.014,0,0,0,.48.8l.665.518a3.241,3.241,0,0,1,1.553,2.588c0,1.738-1.682,3.487-4.86,3.487-2.682,0-3.975-1.274-3.975-2.644a2.661,2.661,0,0,1,1.424-2.256,7.81,7.81,0,0,1,3.53-.85,1.9,1.9,0,0,1-.555-1.255,1.668,1.668,0,0,1,.185-.721c-.2.019-.408.038-.593.038a2.924,2.924,0,0,1-3.068-2.9,3.326,3.326,0,0,1,1.183-2.478,5.04,5.04,0,0,1,3.31-1.016h3.806l-1.183.665Zm-1.312,8.207a2.857,2.857,0,0,0-.424-.019,7.389,7.389,0,0,0-1.942.3,2.076,2.076,0,0,0-1.59,1.9c0,1.314,1.277,2.256,3.253,2.256,1.773,0,2.717-.853,2.717-2,0-.944-.6-1.44-2.017-2.441Zm.536-3.513a1.877,1.877,0,0,0,.461-1.341c0-1.341-.8-3.4-2.328-3.4a1.727,1.727,0,0,0-1.3.611,2.146,2.146,0,0,0-.408,1.368c0,1.239.721,3.291,2.312,3.291a1.894,1.894,0,0,0,1.255-.534Z" transform="translate(-204.83 -57.124)"/><path class="h" d="M249.933,85.877a4.356,4.356,0,0,1-4.5-4.356,4.575,4.575,0,0,1,4.779-4.484,4.315,4.315,0,0,1,4.412,4.361A4.5,4.5,0,0,1,249.933,85.877Zm2.307-1.494a3.339,3.339,0,0,0,.555-2.049c0-1.625-.775-4.726-3.063-4.726a2.569,2.569,0,0,0-1.66.628,2.8,2.8,0,0,0-.85,2.253c0,1.826.9,4.828,3.138,4.828a2.358,2.358,0,0,0,1.88-.928Z" transform="translate(-179.605 -56.375)"/><path class="h" d="M212.643,85.877a4.356,4.356,0,0,1-4.5-4.356,4.575,4.575,0,0,1,4.779-4.484,4.315,4.315,0,0,1,4.409,4.361A4.5,4.5,0,0,1,212.643,85.877Zm2.307-1.494a3.342,3.342,0,0,0,.555-2.049c0-1.625-.775-4.726-3.063-4.726a2.572,2.572,0,0,0-1.657.636,2.8,2.8,0,0,0-.85,2.253c0,1.826.9,4.828,3.138,4.828a2.36,2.36,0,0,0,1.877-.936Z" transform="translate(-152.316 -56.375)"/><path class="h" d="M168.01,74.238l-2.65.611a19.663,19.663,0,0,1-3.06.314c-5.123,0-7.07-3.755-7.07-6.705,0-3.6,2.765-6.938,7.5-6.938a10.688,10.688,0,0,1,2.838.389,7.241,7.241,0,0,1,2.449,1.151l-1.539,1.464-.649.148.464-.743a5.3,5.3,0,0,0-3.969-1.743,5.123,5.123,0,0,0-5.139,5.474,6.563,6.563,0,0,0,6.568,6.772,5.525,5.525,0,0,0,2.358-.464V70.974l-2.8.148,1.483-.8h3.935l-.483.464a.435.435,0,0,0-.185.3c-.019.166-.038.705-.038.89Z" transform="translate(-113.597 -45.02)"/><path class="h" d="M316.742,72.548c-.611-.056-.74-.166-.74-.89V61.034c.075-.649.268-.759.837-1.094H314.2l-1.392.668h1.419V72.063c0,.37-.072.426-.5.982h3.286l.676-.4C317.375,72.6,317.058,72.586,316.742,72.548Z" transform="translate(-228.913 -43.864)"/><path class="h" d="M337.274,85.269c-.2.11-.4.241-.606.333a4.291,4.291,0,0,1-1.789.351,3.937,3.937,0,0,1-2.451-.719,4.774,4.774,0,0,1-1.877-3.889,4.176,4.176,0,0,1,4.219-4.256,3.58,3.58,0,0,1,1.9.512,3.05,3.05,0,0,1,1.287,1.824l-4.334,1.751-1.419.11c.459,2.339,2.044,3.7,3.8,3.7a4.761,4.761,0,0,0,2.248-.644Zm-1.73-5.493c.349-.129.536-.239.536-.5a1.828,1.828,0,0,0-1.824-1.585,2.27,2.27,0,0,0-2.119,2.561c0,.314.038.644.056.976Z" transform="translate(-241.896 -56.413)"/><path class="h" d="M360.76,77.206v1.215h-.148V77.206h-.4V77.08h.952v.126Z" transform="translate(-263.601 -56.407)"/><path class="h" d="M365.674,78.431V77.2h0l-.386,1.228h-.115l-.378-1.228h0v1.228h-.134V77.09h.231l.341,1.073h0l.335-1.073h.233v1.341Z" transform="translate(-266.857 -56.414)"/><path class="i" d="M159,37.755h-.923a6.106,6.106,0,0,0-.268-1.073h-1.341a5.56,5.56,0,0,0-.268,1.073h-.866q0-.113.673-1.843A14.482,14.482,0,0,0,156.676,34h1.089a15.881,15.881,0,0,0,.609,1.877A16.485,16.485,0,0,1,159,37.755Zm-1.341-1.628a16.24,16.24,0,0,1-.494-1.609h-.043q0,.113-.51,1.609Z" transform="translate(-113.67 -24.881)"/><path class="i" d="M174.35,37.733h-.711a7.017,7.017,0,0,0-.8-1.247,6.907,6.907,0,0,1-.944-1.628h-.046a10.165,10.165,0,0,1,.072,1.14q0,.711.04,1.735h-.708q.043-.893.043-1.963t-.035-1.792h.856a5.411,5.411,0,0,0,.711,1.218,7.172,7.172,0,0,1,.869,1.537h.043a10.885,10.885,0,0,1-.07-1.153q0-.78-.04-1.609h.721q-.04.713-.04,1.789T174.35,37.733Z" transform="translate(-125.32 -24.859)"/><path class="i" d="M189.7,35.754a2.127,2.127,0,0,1-.536,1.43,1.832,1.832,0,0,1-1.47.612q-.426,0-1.175-.035.038-.869.038-1.963,0-1.049-.038-1.789h.872l.33-.008a1.939,1.939,0,0,1,1.507.518A1.794,1.794,0,0,1,189.7,35.754Zm-.786.123a1.389,1.389,0,0,0-.322-.933,1.223,1.223,0,0,0-.984-.378,3.026,3.026,0,0,0-.341.027q.029.577.029,1.2,0,.689.03,1.365a1.91,1.91,0,0,0,.375.038,1.089,1.089,0,0,0,.917-.384,1.483,1.483,0,0,0,.292-.939Z" transform="translate(-136.495 -24.881)"/><path class="i" d="M204.439,37.762h-.853a5.667,5.667,0,0,0-.512-1.258.673.673,0,0,0-.577-.239h-.319q0,.74.027,1.5h-.8q.038-.869.038-1.963,0-1.049-.038-1.789h1.371q1.322,0,1.322.9a1.014,1.014,0,0,1-.754,1v.043a.9.9,0,0,1,.51.453,10.027,10.027,0,0,1,.59,1.352Zm-1.073-2.65q-.008-.569-.732-.569a2.519,2.519,0,0,0-.477.04q.032.448.032,1.164h.268q.9.005.9-.633Z" transform="translate(-147.384 -24.888)"/><path class="i" d="M218.13,35.592a2.068,2.068,0,0,1-.536,1.467,1.757,1.757,0,0,1-1.341.582,1.692,1.692,0,0,1-1.274-.536,1.877,1.877,0,0,1-.512-1.357A2.068,2.068,0,0,1,215,34.281a1.757,1.757,0,0,1,1.341-.582,1.7,1.7,0,0,1,1.274.536A1.877,1.877,0,0,1,218.13,35.592Zm-.8.083a1.486,1.486,0,0,0-.3-.976.949.949,0,0,0-.762-.375.88.88,0,0,0-.713.378,1.5,1.5,0,0,0-.3.955,1.483,1.483,0,0,0,.308.976.95.95,0,0,0,.759.375.877.877,0,0,0,.713-.378,1.507,1.507,0,0,0,.3-.952Z" transform="translate(-156.945 -24.66)"/><path class="i" d="M231.975,37.755h-.8q.038-.893.038-1.963T231.16,34h.8q-.038.727-.038,1.789T231.975,37.755Z" transform="translate(-169.162 -24.881)"/><path class="i" d="M241.091,35.776a2.127,2.127,0,0,1-.536,1.43,1.832,1.832,0,0,1-1.47.612q-.426,0-1.175-.035.038-.869.038-1.963,0-1.049-.038-1.789H239.1a1.939,1.939,0,0,1,1.507.518A1.794,1.794,0,0,1,241.091,35.776Zm-.786.123a1.389,1.389,0,0,0-.322-.933,1.223,1.223,0,0,0-.976-.378,3.026,3.026,0,0,0-.341.027q.029.577.029,1.2,0,.689.029,1.365a1.91,1.91,0,0,0,.375.038,1.089,1.089,0,0,0,.917-.384A1.483,1.483,0,0,0,240.305,35.9Z" transform="translate(-174.102 -24.903)"/><path class="i" d="M260.434,37.755h-.92a6.091,6.091,0,0,0-.268-1.073H257.9a5.57,5.57,0,0,0-.268,1.073h-.866q0-.113.673-1.843A14.459,14.459,0,0,0,258.124,34h1.089a15.911,15.911,0,0,0,.609,1.877A16.489,16.489,0,0,1,260.434,37.755Zm-1.341-1.628a16.3,16.3,0,0,1-.493-1.609h-.046q0,.113-.51,1.609Z" transform="translate(-187.904 -24.881)"/><path class="i" d="M275.543,35.016a1.124,1.124,0,0,1-.512,1.016,2.274,2.274,0,0,1-1.255.327h-.193q0,.536.032,1.43h-.8q.038-.831.038-1.963,0-1.038-.038-1.789h1.448a1.649,1.649,0,0,1,.925.247A.84.84,0,0,1,275.543,35.016Zm-.743.158q0-.617-.818-.617a2.318,2.318,0,0,0-.432.043q.032.536.032,1.234h.166q1.041.005,1.041-.66Z" transform="translate(-199.642 -24.908)"/><path class="i" d="M288.383,34.987A1.124,1.124,0,0,1,287.871,36a2.275,2.275,0,0,1-1.255.327h-.193q0,.536.032,1.43h-.8q.038-.831.038-1.963,0-1.038-.038-1.789h.5l.4-.011h.536a1.649,1.649,0,0,1,.925.247A.839.839,0,0,1,288.383,34.987Zm-.743.158q0-.617-.818-.617a2.317,2.317,0,0,0-.432.043q.032.536.032,1.234h.166Q287.64,35.81,287.64,35.145Z" transform="translate(-209.038 -24.879)"/><path class="i" d="M306.91,35.592a2.068,2.068,0,0,1-.536,1.467,1.757,1.757,0,0,1-1.341.582,1.692,1.692,0,0,1-1.274-.536,1.877,1.877,0,0,1-.512-1.357,2.068,2.068,0,0,1,.536-1.467,1.757,1.757,0,0,1,1.341-.582,1.7,1.7,0,0,1,1.274.536A1.877,1.877,0,0,1,306.91,35.592Zm-.8.083a1.486,1.486,0,0,0-.308-.976.949.949,0,0,0-.74-.384.88.88,0,0,0-.713.378,1.5,1.5,0,0,0-.306.963,1.483,1.483,0,0,0,.311.976.949.949,0,0,0,.759.375.877.877,0,0,0,.713-.378,1.507,1.507,0,0,0,.292-.952Z" transform="translate(-221.914 -24.661)"/><path class="i" d="M323.01,37.755H322.3a7.015,7.015,0,0,0-.8-1.247,6.908,6.908,0,0,1-.944-1.628h-.046a10.158,10.158,0,0,1,.072,1.14q0,.711.04,1.735h-.708q.043-.893.043-1.963T319.918,34h.856a5.409,5.409,0,0,0,.711,1.218,7.165,7.165,0,0,1,.864,1.545h.043a10.861,10.861,0,0,1-.07-1.153q0-.78-.04-1.609H323q-.04.713-.04,1.789T323.01,37.755Z" transform="translate(-234.109 -24.881)"/></svg>