<svg xmlns="http://www.w3.org/2000/svg" width="217.382" height="219.069" viewBox="0 0 217.382 219.069"><defs><style>.a{fill:#707070;}.b{fill:#f6b419;}.c{fill:#26b864;}.d{fill:none;stroke:#161616;stroke-miterlimit:10;}</style></defs><g transform="translate(0 0)"><ellipse class="a" cx="38.63" cy="10.174" rx="38.63" ry="10.174" transform="translate(121.213 198.721)"/><ellipse class="a" cx="26.143" cy="6.89" rx="26.143" ry="6.89" transform="translate(11.815 97.483)"/><path class="b" d="M36.615,2.73A36.615,36.615,0,0,0,0,39.345c0,21.616,36.615,63.38,36.615,63.38S73.23,62.578,73.23,39.345A36.615,36.615,0,0,0,36.615,2.73Zm0,50.968A15.845,15.845,0,1,1,52.46,37.853,15.845,15.845,0,0,1,36.615,53.7Z" transform="translate(0 4.061)"/><path class="c" d="M98.511,0A56.788,56.788,0,0,0,55.777,94.174h0L98.486,210.537,141.2,94.249A56.788,56.788,0,0,0,98.511,0Zm0,81.24a24.427,24.427,0,1,1,24.427-24.427A24.427,24.427,0,0,1,98.511,81.24Z" transform="translate(62.078 0)"/><path class="d" d="M16.019,42.4S3.358,86.627,56.987,92.845s81.687,54.724,81.687,54.724" transform="translate(21.89 63.067)"/></g></svg>