<svg xmlns="http://www.w3.org/2000/svg" width="265.794" height="257" viewBox="0 0 265.794 257"><defs><style>.a{fill:#f6b419;}.b{fill:#26b864;}</style></defs><g transform="translate(0 0)"><path class="a" d="M188.025,96.181H163.531A104.137,104.137,0,0,0,120.16,17.526L137.555,0a128.482,128.482,0,0,1,50.471,96.181Z" transform="translate(77.769 0)"/><path class="b" d="M217.778,200.877v12.255H21.76V200.877l24.51-24.51V115.123C46.27,77.386,66.235,45.94,101.4,37.7V29.353a18.383,18.383,0,1,1,36.766,0v8.335C173.2,46.023,193.3,77.5,193.3,115.107v61.26Z" transform="translate(14.083 7.1)"/><path class="a" d="M160.021,85.7H142.3A75.261,75.261,0,0,0,111,28.851L123.568,16.2a92.886,92.886,0,0,1,36.453,69.5Z" transform="translate(71.84 10.485)"/><path class="a" d="M115.334,141.14a24.544,24.544,0,0,1-1.845,9.554,24.873,24.873,0,0,1-17.642,14.463,21.811,21.811,0,0,1-4.942.494A24.708,24.708,0,0,1,66.28,141.14Z" transform="translate(42.897 91.347)"/><path class="a" d="M57.079,16.19,69.647,28.841a75.31,75.31,0,0,0-31.3,56.845H20.61a92.853,92.853,0,0,1,36.469-69.5Z" transform="translate(13.339 10.478)"/><path class="a" d="M50.487,0,67.882,17.526A104.1,104.1,0,0,0,24.51,96.181H0A128.482,128.482,0,0,1,50.487,0Z" transform="translate(0 0)"/></g></svg>