<svg xmlns="http://www.w3.org/2000/svg" width="242.892" height="193.07" viewBox="0 0 242.892 193.07"><defs><style>.a,.b,.c,.d,.e{fill:#f6b419;}.a{opacity:0;}.b{opacity:0.25;}.c{opacity:0.5;}.d{opacity:0.75;}.f{opacity:0.6;}.g{fill:#1060ac;}.h{fill:#343349;}.i{fill:#26b864;}.j,.m{fill:#fff;}.j{opacity:0.1;}.k{fill:#161616;}.l{fill:none;stroke:#fffbf7;stroke-miterlimit:10;stroke-width:2.91px;}.m{font-size:28px;font-family:MyriadPro-Regular, Myriad Pro;}</style></defs><g transform="translate(0)"><path class="a" d="M232.34,96.523A96.535,96.535,0,1,1,135.809,0,96.538,96.538,0,0,1,232.34,96.523Z" transform="translate(10.552)"/><circle class="b" cx="77.695" cy="77.695" r="77.695" transform="translate(68.662 18.84)"/><circle class="c" cx="58.868" cy="58.868" r="58.868" transform="translate(87.489 37.655)"/><circle class="d" cx="40.04" cy="40.04" r="40.04" transform="translate(106.317 56.482)"/><circle class="e" cx="21.2" cy="21.2" r="21.2" transform="translate(125.157 75.323)"/><g class="f" transform="translate(6.94 71.478)"><path class="g" d="M5.47,164.37a9.084,9.084,0,0,0,9.059,9.071h160.9a9.084,9.084,0,0,0,9.059-9.071V65.411a9.084,9.084,0,0,0-9.059-9.071H14.529A9.084,9.084,0,0,0,5.47,65.411Z" transform="translate(-5.47 -56.34)"/><path class="h" d="M5.47,164.37a9.084,9.084,0,0,0,9.059,9.071h160.9a9.084,9.084,0,0,0,9.059-9.071V65.411a9.084,9.084,0,0,0-9.059-9.071H14.529A9.084,9.084,0,0,0,5.47,65.411Z" transform="translate(-5.47 -56.34)"/></g><g transform="translate(0 65.972)"><path class="i" d="M0,159.992a9.084,9.084,0,0,0,9.059,9.071H170.006a9.084,9.084,0,0,0,9.059-9.071V61.033A9.084,9.084,0,0,0,170.006,52H9.059A9.084,9.084,0,0,0,0,61.059Z" transform="translate(0 -52)"/><path class="i" d="M0,159.992a9.084,9.084,0,0,0,9.059,9.071H170.006a9.084,9.084,0,0,0,9.059-9.071V61.033A9.084,9.084,0,0,0,170.006,52H9.059A9.084,9.084,0,0,0,0,61.059Z" transform="translate(0 -52)"/></g><path class="j" d="M102.9,52H9.259A9.084,9.084,0,0,0,.2,61.059v98.958a9.084,9.084,0,0,0,9.059,9.071H59.575Z" transform="translate(0.054 13.972)"/><rect class="k" width="21.669" height="8.12" transform="translate(15.732 155.606)"/><rect class="k" width="21.669" height="8.12" transform="translate(42.882 155.606)"/><path class="l" d="M126.63,67.45a20.058,20.058,0,0,1,.063,18.46" transform="translate(34.025 18.124)"/><path class="l" d="M123.41,68.82a16.874,16.874,0,0,1,0,15" transform="translate(33.16 18.492)"/><path class="l" d="M120.18,70.18a13.689,13.689,0,0,1,0,11.545" transform="translate(32.292 18.857)"/><path class="l" d="M116.94,71.55a10.543,10.543,0,0,1,0,8.082" transform="translate(31.422 19.225)"/><text class="m" transform="translate(87.033 105.648)"><tspan x="0" y="0">NFC</tspan></text></g></svg>